<?xml version="1.0" encoding="iso-8859-1"?>
<!-- Generator: Adobe Illustrator 19.0.0, SVG Export Plug-In . SVG Version: 6.00 Build 0)  -->
<svg xmlns="http://www.w3.org/2000/svg" xmlns:xlink="http://www.w3.org/1999/xlink" version="1.1" id="Capa_1" x="0px" y="0px" viewBox="0 0 512.004 512.004" style="enable-background:new 0 0 512.004 512.004;" xml:space="preserve" width="512px" height="512px">
<g>
	<g>
		<g>
			<path d="M231.543,301.795c-4.167-4.167-10.917-4.167-15.083,0c-4.167,4.167-4.167,10.917,0,15.083l10.667,10.667     c2.083,2.083,4.813,3.125,7.542,3.125c2.729,0,5.458-1.042,7.542-3.125c4.167-4.167,4.167-10.917,0-15.083L231.543,301.795z" fill="#c7c6bd"/>
			<path d="M280.46,301.795l-10.667,10.667c-4.167,4.167-4.167,10.917,0,15.083c2.083,2.083,4.813,3.125,7.542,3.125     c2.729,0,5.458-1.042,7.542-3.125l10.667-10.667c4.167-4.167,4.167-10.917,0-15.083     C291.377,297.629,284.627,297.629,280.46,301.795z" fill="#c7c6bd"/>
			<path d="M469.335,268.504c0-106.098-84.749-193.533-192.745-203.5l19.953-26.604c3.521-4.708,2.563-11.396-2.146-14.927     c-4.667-3.521-11.354-2.594-14.938,2.135l-17.042,22.719L255.856,8.92c-0.979-5.813-6.563-9.75-12.271-8.771     c-5.813,0.969-9.75,6.458-8.771,12.271l3.475,20.848l-5.746-7.66c-3.563-4.729-10.25-5.667-14.938-2.135     c-4.708,3.531-5.667,10.219-2.146,14.927l19.953,26.604c-107.996,9.967-192.745,97.402-192.745,203.5     c0,47.891,18.359,84.678,54.182,109.826c-7.405,11.779-11.516,24.199-11.516,37.674c0,66.396,52.646,96,170.667,96     s170.667-29.604,170.667-96c0-13.475-4.109-25.897-11.516-37.673C450.969,353.182,469.335,316.393,469.335,268.504z      M256.002,490.67c-149.333,0-149.333-50.427-149.333-74.667c0-16.688,7.563-30.604,24.5-45.125     c14.208-12.167,21.188-30.708,18.708-49.583c-1.25-9.438-0.25-17.031,2.646-20.333c0.542-0.625,2-2.292,6.604-2.292     c23.333,0,50.125-13.667,68.5-25.135c4.688-2.917,8.313-6.531,11.5-9.708c7.479-7.438,16.688-7.813,16.792-7.823     c0.083,0,9.5,0.406,16.958,7.802c3.188,3.198,6.813,6.813,11.5,9.729c18.375,11.469,45.167,25.135,68.5,25.135     c4.604,0,6.063,1.667,6.604,2.292c2.896,3.302,3.896,10.896,2.646,20.323c-2.479,18.885,4.5,37.427,18.708,49.594v0.01     c16.938,14.51,24.5,28.427,24.5,45.115C405.335,440.243,405.335,490.67,256.002,490.67z M401.722,361.739     c-2.337-2.349-4.332-4.753-7.012-7.048c-8.688-7.469-12.958-18.906-11.417-30.625c2.104-16.125-0.583-28.979-7.771-37.167     c-3.833-4.365-10.854-9.563-22.646-9.563c-19.25,0-44.104-13.719-57.208-21.906c-2.625-1.635-5.104-4.115-7.75-6.75     c-13.604-13.479-30-14-32-14.01c-1.833,0.01-18.229,0.531-31.833,14.031c-2.646,2.615-5.125,5.094-7.75,6.729     c-13.104,8.187-37.958,21.906-57.208,21.906c-11.792,0-18.813,5.198-22.646,9.563c-7.188,8.188-9.875,21.042-7.771,37.177     c1.542,11.708-2.729,23.146-11.417,30.604c-2.678,2.296-4.671,4.699-7.008,7.048c-30.973-21.202-46.284-51.699-46.284-93.225     c0-101,86.125-183.167,192-183.167s192,82.167,192,183.167C448.002,310.037,432.704,340.537,401.722,361.739z" fill="#c7c6bd"/>
			<circle cx="352.002" cy="202.668" r="10.667" fill="#c7c6bd"/>
			<path d="M352.002,149.337c-35.292,0-64,23.927-64,53.333s28.708,53.333,64,53.333s64-23.927,64-53.333     S387.293,149.337,352.002,149.337z M352.002,234.67c-23.521,0-42.667-14.354-42.667-32s19.146-32,42.667-32     c23.521,0,42.667,14.354,42.667,32S375.523,234.67,352.002,234.67z" fill="#c7c6bd"/>
			<circle cx="160.002" cy="202.668" r="10.667" fill="#c7c6bd"/>
			<path d="M160.002,149.337c-35.292,0-64,23.927-64,53.333s28.708,53.333,64,53.333s64-23.927,64-53.333     S195.293,149.337,160.002,149.337z M160.002,234.67c-23.521,0-42.667-14.354-42.667-32s19.146-32,42.667-32     s42.667,14.354,42.667,32S183.523,234.67,160.002,234.67z" fill="#c7c6bd"/>
		</g>
	</g>
</g>
<g>
</g>
<g>
</g>
<g>
</g>
<g>
</g>
<g>
</g>
<g>
</g>
<g>
</g>
<g>
</g>
<g>
</g>
<g>
</g>
<g>
</g>
<g>
</g>
<g>
</g>
<g>
</g>
<g>
</g>
</svg>
